<?xml version="1.0" standalone="no"?>
<!DOCTYPE svg PUBLIC "-//W3C//DTD SVG 20010904//EN"
 "http://www.w3.org/TR/2001/REC-SVG-20010904/DTD/svg10.dtd">
<svg version="1.0" xmlns="http://www.w3.org/2000/svg"
 width="1080.000000pt" height="1080.000000pt" viewBox="0 0 1080.000000 1080.000000"
 preserveAspectRatio="xMidYMid meet">

<g transform="translate(0.000000,1080.000000) scale(0.100000,-0.100000)"
fill="#000000" stroke="none">
<path d="M3726 6852 c-49 -235 -91 -433 -94 -440 -3 -10 3 -13 23 -10 l29 3
87 414 c48 228 90 425 93 438 6 20 3 23 -21 23 l-28 0 -89 -428z"/>
<path d="M5652 7233 c-6 -27 -23 -108 -38 -182 -28 -132 -28 -133 -43 -103
-21 46 -67 63 -165 63 -133 1 -184 -34 -225 -153 -30 -87 -61 -254 -61 -328 0
-86 19 -114 91 -129 113 -25 196 -8 250 50 l36 39 -7 -45 c-6 -41 -5 -45 15
-45 20 0 27 25 113 433 51 237 92 435 92 440 0 4 -11 7 -24 7 -21 0 -26 -7
-34 -47z m-160 -274 c67 -18 83 -86 53 -228 -35 -165 -78 -251 -141 -277 -18
-8 -67 -14 -107 -14 -60 0 -79 4 -101 21 -23 18 -26 28 -26 77 0 60 29 213 56
297 22 67 58 113 97 124 44 13 124 13 169 0z"/>
<path d="M2435 7208 c-22 -66 -118 -563 -122 -635 -7 -107 5 -135 65 -160 50
-21 204 -28 277 -13 79 16 133 69 164 161 20 61 141 614 141 644 0 9 -10 15
-25 15 -14 0 -25 -2 -25 -5 0 -3 -29 -143 -65 -313 -91 -426 -105 -449 -271
-460 -158 -10 -214 18 -214 108 0 39 92 510 126 647 5 20 2 23 -20 23 -15 0
-29 -6 -31 -12z"/>
<path d="M6170 7216 c0 -2 -38 -183 -85 -402 -47 -220 -85 -402 -85 -406 0 -5
11 -8 24 -8 20 0 26 7 35 48 27 113 161 748 161 760 0 6 -11 12 -25 12 -14 0
-25 -2 -25 -4z"/>
<path d="M3304 7009 c-60 -8 -95 -29 -123 -72 l-20 -32 6 53 c5 48 4 52 -16
52 -11 0 -21 -4 -21 -8 0 -5 -38 -188 -85 -408 -47 -219 -85 -405 -85 -411 0
-7 11 -13 23 -13 22 0 25 8 52 138 16 75 32 146 36 157 6 19 8 18 18 -7 14
-37 60 -58 139 -65 135 -11 211 37 250 157 56 168 77 353 47 410 -22 43 -113
63 -221 49z m141 -53 c23 -10 37 -24 41 -41 10 -41 -3 -150 -31 -260 -46 -182
-77 -215 -204 -215 -87 0 -136 22 -147 66 -17 68 25 277 74 369 20 37 38 56
72 73 52 26 142 30 195 8z"/>
<path d="M4135 7010 c-120 -13 -152 -49 -194 -222 -62 -250 -62 -341 -1 -373
37 -19 144 -29 224 -21 129 14 167 70 217 316 51 257 36 290 -136 303 -27 2
-77 1 -110 -3z m173 -51 c63 -22 64 -78 6 -320 -29 -123 -52 -165 -99 -185
-40 -16 -190 -19 -230 -4 -53 20 -53 83 1 312 41 172 78 208 215 208 42 0 90
-5 107 -11z"/>
<path d="M4760 7013 c-71 -9 -93 -16 -124 -43 -43 -39 -68 -98 -100 -241 -34
-152 -35 -257 -3 -294 25 -29 77 -44 152 -45 79 0 126 18 168 63 21 23 36 35
33 27 -2 -8 -7 -30 -10 -47 -5 -29 -3 -33 17 -33 22 0 26 13 85 298 35 163 63
300 62 305 0 4 -9 7 -20 7 -15 0 -22 -11 -31 -45 l-11 -45 -22 33 c-12 17 -33
37 -46 43 -27 13 -109 21 -150 17z m163 -83 c29 -32 30 -36 24 -109 -7 -86
-48 -237 -80 -295 -37 -66 -66 -81 -165 -84 -77 -3 -90 -1 -115 18 -24 19 -27
28 -27 82 0 68 42 267 69 331 34 78 74 98 185 94 75 -4 81 -6 109 -37z"/>
<path d="M6590 7012 c-61 -6 -100 -24 -130 -60 l-32 -37 7 48 c6 42 4 47 -14
47 -24 0 -19 17 -85 -297 -31 -144 -58 -273 -62 -287 -5 -23 -3 -26 20 -26 18
0 27 6 31 23 3 12 23 104 45 205 45 209 62 254 113 299 41 36 87 48 154 40 93
-10 95 -34 28 -347 -25 -117 -45 -215 -45 -217 0 -2 11 -3 25 -3 17 0 26 7 30
23 3 12 23 105 45 207 22 102 45 199 52 215 34 89 104 131 203 123 105 -9 108
-30 40 -346 -25 -117 -45 -215 -45 -217 0 -3 11 -5 25 -5 14 0 25 1 25 3 0 1
20 94 44 207 56 260 60 292 46 336 -16 48 -54 65 -145 65 -87 0 -141 -23 -173
-72 l-20 -32 -6 31 c-4 16 -15 37 -26 47 -18 17 -104 33 -150 27z"/>
<path d="M7465 7010 c-110 -12 -157 -74 -200 -265 -36 -159 -42 -243 -21 -287
24 -49 61 -63 171 -63 101 0 133 13 173 68 l24 32 -7 -48 c-6 -46 -5 -48 16
-45 21 3 26 23 85 298 35 162 63 299 64 303 1 18 -45 1 -49 -18 -2 -11 -8 -31
-13 -45 l-10 -25 -13 32 c-23 54 -100 76 -220 63z m151 -55 c65 -27 75 -89 38
-250 -48 -212 -94 -264 -234 -264 -144 -1 -158 28 -117 236 38 188 67 250 132
279 40 18 137 17 181 -1z"/>
<path d="M8074 7009 c-61 -8 -84 -19 -117 -59 -34 -40 -60 -114 -87 -245 -30
-147 -32 -225 -4 -262 27 -37 98 -56 182 -49 77 6 125 28 152 69 l21 32 -7
-35 c-15 -78 -46 -161 -71 -191 -44 -51 -80 -61 -230 -60 -126 1 -133 0 -133
-19 0 -27 45 -33 188 -28 126 5 157 14 203 65 37 39 55 77 78 169 19 76 131
594 131 607 0 4 -9 7 -20 7 -15 0 -23 -12 -33 -47 l-14 -47 -14 29 c-27 56
-109 79 -225 64z m173 -65 c42 -31 49 -75 29 -185 -34 -189 -84 -284 -164
-310 -18 -6 -65 -9 -103 -7 -123 7 -136 50 -85 277 49 218 82 253 228 248 50
-2 75 -8 95 -23z"/>
<path d="M8755 7012 c-94 -8 -117 -15 -152 -45 -47 -41 -65 -85 -97 -227 -63
-289 -43 -336 149 -347 44 -2 107 -1 140 4 50 7 60 12 63 29 3 20 0 20 -130
17 -147 -4 -173 2 -197 51 -11 25 -11 41 0 110 l14 81 196 3 196 2 14 78 c33
183 13 229 -102 241 -35 3 -77 5 -94 3z m115 -55 c44 -22 52 -55 38 -144 l-13
-78 -167 -3 c-193 -3 -182 -10 -148 100 32 105 77 137 195 137 39 1 81 -5 95
-12z"/>
</g>
</svg>
